<?xml version="1.0" encoding="UTF-8" standalone="no"?>
<!DOCTYPE svg PUBLIC "-//W3C//DTD SVG 1.1//EN"
 "http://www.w3.org/Graphics/SVG/1.1/DTD/svg11.dtd">
<!-- Generated by graphviz version 9.0.0 (20230911.1827)
 -->
<!-- Title: new_circuit Pages: 1 -->
<svg width="921pt" height="1041pt"
 viewBox="0.00 0.00 920.75 1040.78" xmlns="http://www.w3.org/2000/svg" xmlns:xlink="http://www.w3.org/1999/xlink">
<g id="graph0" class="graph" transform="scale(1 1) rotate(0) translate(4 1036.78)">
<title>new_circuit</title>
<polygon fill="white" stroke="none" points="-4,4 -4,-1036.78 916.75,-1036.78 916.75,4 -4,4"/>
<!-- C1 -->
<g id="node1" class="node">
<title>C1</title>
<polygon fill="none" stroke="black" points="0,-259.5 0,-773.28 452.38,-773.28 452.38,-259.5 0,-259.5"/>
<text text-anchor="middle" x="50.25" y="-511.98" font-family="Times,serif" font-size="14.00">o1</text>
<polyline fill="none" stroke="black" points="100.5,-260.28 100.5,-773.28"/>
<text text-anchor="middle" x="226.12" y="-511.73" font-family="Times,serif" font-size="14.00">C1: mzi_1x2_pindiode_cband</text>
<polyline fill="none" stroke="black" points="351.75,-260.28 351.75,-773.28"/>
<text text-anchor="middle" x="402" y="-639.98" font-family="Times,serif" font-size="14.00">o2</text>
<polyline fill="none" stroke="black" points="351.75,-516.78 452.25,-516.78"/>
<text text-anchor="middle" x="402" y="-383.48" font-family="Times,serif" font-size="14.00">o3</text>
</g>
<!-- C2 -->
<g id="node2" class="node">
<title>C2</title>
<polygon fill="none" stroke="black" points="460.37,-518.5 460.37,-1032.28 912.75,-1032.28 912.75,-518.5 460.37,-518.5"/>
<text text-anchor="middle" x="510.62" y="-770.98" font-family="Times,serif" font-size="14.00">o1</text>
<polyline fill="none" stroke="black" points="560.87,-519.28 560.87,-1032.28"/>
<text text-anchor="middle" x="686.49" y="-770.73" font-family="Times,serif" font-size="14.00">C2: mzi_1x2_pindiode_cband</text>
<polyline fill="none" stroke="black" points="812.12,-519.28 812.12,-1032.28"/>
<text text-anchor="middle" x="862.37" y="-898.98" font-family="Times,serif" font-size="14.00">o2</text>
<polyline fill="none" stroke="black" points="812.12,-775.78 912.62,-775.78"/>
<text text-anchor="middle" x="862.37" y="-642.48" font-family="Times,serif" font-size="14.00">o3</text>
</g>
<!-- C1&#45;&#45;C2 -->
<g id="edge1" class="edge">
<title>C1:o2&#45;&#45;C2:o1</title>
<path fill="none" stroke="black" d="M452.38,-645.39C466.29,-645.39 450.32,-530.01 460.38,-520.39 464.41,-516.54 510.56,-513.81 510.56,-519.39"/>
</g>
<!-- C3 -->
<g id="node3" class="node">
<title>C3</title>
<polygon fill="none" stroke="black" points="460.37,-0.5 460.37,-514.28 912.75,-514.28 912.75,-0.5 460.37,-0.5"/>
<text text-anchor="middle" x="510.62" y="-252.98" font-family="Times,serif" font-size="14.00">o1</text>
<polyline fill="none" stroke="black" points="560.87,-1.28 560.87,-514.28"/>
<text text-anchor="middle" x="686.49" y="-252.73" font-family="Times,serif" font-size="14.00">C3: mzi_1x2_pindiode_cband</text>
<polyline fill="none" stroke="black" points="812.12,-1.28 812.12,-514.28"/>
<text text-anchor="middle" x="862.37" y="-380.98" font-family="Times,serif" font-size="14.00">o2</text>
<polyline fill="none" stroke="black" points="812.12,-257.78 912.62,-257.78"/>
<text text-anchor="middle" x="862.37" y="-124.48" font-family="Times,serif" font-size="14.00">o3</text>
</g>
<!-- C1&#45;&#45;C3 -->
<g id="edge2" class="edge">
<title>C1:o3&#45;&#45;C3:o1</title>
<path fill="none" stroke="black" d="M452.38,-389.39C466.18,-389.39 450.4,-503.85 460.38,-513.39 464.41,-517.25 510.56,-519.97 510.56,-514.39"/>
</g>
</g>
</svg>
